# xmcd
#
# Track frame offsets: 
#        150
#        21137
#        41413
#        52428
#        75931
#        94438
#        112328
#        133776
#        159663
#        179939
#        202605
#        224362
#
# Disc length: 3228 seconds
#
# Revision: 0
# Processed by: cddbd v1.5.2PL0 Copyright (c) Steve Scherf et al.
# Submitted via: ExactAudioCopy v1.0b3
#
DISCID=b10c9a0c
DTITLE=Various Artist - Arabian Audio 2004
DYEAR=2004
DGENRE=Arabian Pop
TTITLE0=Arabian Pop 01
TTITLE1=Arabian Pop 02
TTITLE2=Arabian Pop 03
TTITLE3=Arabian Pop 04
TTITLE4=Arabian Pop 05
TTITLE5=Arabian Pop 06
TTITLE6=Arabian Pop 07
TTITLE7=Arabian Pop 08
TTITLE8=Arabian Pop 09
TTITLE9=Arabian Pop 10
TTITLE10=Arabian Pop 11
TTITLE11=Arabian Pop 12
EXTD=
EXTT0=
EXTT1=
EXTT2=
EXTT3=
EXTT4=
EXTT5=
EXTT6=
EXTT7=
EXTT8=
EXTT9=
EXTT10=
EXTT11=
PLAYORDER=
